<svg width="36" height="36" viewBox="0 0 36 36" fill="none" xmlns="http://www.w3.org/2000/svg">
<path d="M13.8903 27.0022C22.2506 27.0022 26.8226 20.0757 26.8226 14.0699C26.8226 13.8733 26.8184 13.6774 26.8094 13.4821C27.697 12.8404 28.4682 12.04 29.0767 11.129C28.2626 11.491 27.3861 11.7347 26.4667 11.8448C27.4048 11.282 28.1255 10.3917 28.4654 9.33035C27.5869 9.85097 26.6149 10.2297 25.5792 10.4339C24.7498 9.55051 23.5687 8.99805 22.2617 8.99805C19.7514 8.99805 17.716 11.0334 17.716 13.543C17.716 13.8996 17.7561 14.2464 17.8337 14.5794C14.0564 14.3897 10.7064 12.5807 8.46535 9.83089C8.07489 10.5024 7.84989 11.2827 7.84989 12.1155C7.84989 13.6926 8.65228 15.0848 9.87281 15.899C9.1272 15.8761 8.42658 15.6712 7.81389 15.3306C7.8132 15.3493 7.8132 15.3687 7.8132 15.3887C7.8132 17.5903 9.37989 19.4277 11.4596 19.8444C11.0781 19.9483 10.6759 20.0044 10.2612 20.0044C9.96835 20.0044 9.68381 19.9753 9.40689 19.9227C9.98566 21.7282 11.6631 23.0422 13.6528 23.0796C12.0972 24.2987 10.1373 25.025 8.00774 25.025C7.64081 25.025 7.27943 25.0042 6.92358 24.962C8.93474 26.2497 11.3232 27.0022 13.8903 27.0022Z" fill="url(#paint0_linear)"/>
<path d="M18 36C8.07438 36 0 27.9256 0 18C0 8.07438 8.07438 0 18 0C27.9256 0 36 8.07438 36 18C36 27.9256 27.9256 36 18 36ZM18 1.38462C8.83869 1.38462 1.38462 8.83869 1.38462 18C1.38462 27.1613 8.83869 34.6154 18 34.6154C27.1613 34.6154 34.6154 27.1613 34.6154 18C34.6154 8.83869 27.1613 1.38462 18 1.38462Z" fill="url(#paint1_linear)"/>
<defs>
<linearGradient id="paint0_linear" x1="17.9998" y1="7.09628" x2="17.9998" y2="29.293" gradientUnits="userSpaceOnUse">
<stop stop-color="#302d3a"/>
<stop offset="1" stop-color="#302d3a"/>
</linearGradient>
<linearGradient id="paint1_linear" x1="18" y1="-0.519231" x2="18" y2="36.9554" gradientUnits="userSpaceOnUse">
<stop stop-color="#302d3a"/>
<stop offset="1" stop-color="#302d3a"/>
</linearGradient>
</defs>
</svg>
